<?xml version="1.0" encoding="UTF-8"?>
<svg width="495mm" height="85mm" version="1.1" viewBox="0 0 495 85" xmlns="http://www.w3.org/2000/svg">
  <g transform="translate(647 29)">
    <path d="m-343 55c-2-1-5-3-6-6-1-2-1-2-1-7-0.3-6-0.1-7 2-10 3-4 3-5 2-6-0.6-1-3-3-4-3-1-0.4-5-0.8-7-0.8-1 0.03-3 0.7-6 3-0.9 0.5-2 1-3 1-3 0.6-5 2-7 6-0.6 1-2 3-3 4-2 3-11 12-12 13-0.8 0.5-3 2-5 3l-4 2-5-0.5c-3-0.2-6-0.6-6-0.7-1-0.3-3-2-3-2 0-0.4 4-2 8-4 3-0.9 3-1 4-0.9 2 0.2 3-0.3 7-3 2-1 4-3 6-4 3-2 6-5 8-8 2-2 11-16 14-20 1-2 4-6 6-9 5-7 6-7 5-8-0.2-0.9-1-1-4-2-2-0.2-4-0.6-11-3-2-0.5-4-0.8-5-0.8-2-0.03-2-0.07-7 3-1 0.8-3 1-3 1-0.2-0.2-0.2-1-0.06-2 0.4-1 6-4 9-5 1-0.4 3-0.4 14-0.2 7 0.1 13 0.3 13 0.5 1 0.4 1 1 1 4l0.07 2-2 0.9c-3 2-4 3-6 8-1 3-3 7-5 10-2 3-2 4-0.2 4 1 0 16-3 18-4 0.8-0.3 2-0.7 4-0.9 3-0.5 5-1 7-3 2-1 5-4 7-7 0.6-0.8 2-2 2-2 1-0.6 4-3 4-4 0-0.7-0.7-1-3-3-1-0.7-2-1-2-1-0.3-0.5 0.5-1 2-2 1-0.6 2-0.7 4-0.8 1-0.02 3-0.2 4-0.4 1-0.3 2-0.3 4-0.06 2 0.2 4 0.2 5 0.2 1-0.09 3-0.02 3 0.2 1 0.3 3 2 3 3 0 0.2-0.3 1-0.7 2-0.8 2-0.03 2-8 3l-6 0.5-2 2c-1 1-3 3-4 5-2 3-4 5-7 7-1 1-3 2-3 3-0.8 1-3 3-8 5-2 1-3 2-3 2-0.2 0.5-0.2 1-0.05 3 0.3 3 0.1 5-0.6 6-0.3 0.6-0.6 2-0.8 3-0.2 1-0.7 3-2 4-2 3-2 5-2 8 0 2 0.06 3 0.7 3 1 1 2 1 3 1 5-0.1 16-4 23-9 4-3 10-6 13-8 3-1 8-2 12-2 3-0.1 4-0.08 5 0.5 2 1 3 4 1 6-0.6 1-0.6 1-0.3 4 0.4 2 0.9 4 2 4 0.2 0.09 1 0.09 2-4e-3 2-0.2 2-0.4 6 2l1 0.8 0.4-0.9c0.5-1 2-3 3-3 0.5-0.3 2-0.7 3-0.9 3-0.6 6-3 8-5 2-2 6-11 7-16 0.3-1 0.8-2 2-4 0.6-1 1-2 1-3 0.3-1 0.9-3 3-4 0.8-0.9 2-2 2-3 2-3 4-4 6-6 1-1 3-2 4-2 1-0.7 3-0.8 6-0.3 2 0.3 2 0.6 3 1 0.6 0.7 0.6 0.9 0.5 3-0.3 4-1 6-5 10-1 2-3 4-4 6-2 4-3 5-5 7-0.8 0.8-2 2-2 3l-0.7 1 1 0.6c1 0.5 1 0.8 2 2 1 2 1 4 1 7 3e-3 2-0.2 3-0.5 4-0.7 3-0.6 4 0.5 5 1 1 2 1 5 0.6 4-1 10-4 16-8 6-4 6-4 7-8 0.3-1 1-3 2-4 0.6-1 3-7 5-12 6-13 5-13 7-14 2-2 5-3 7-3 3 0 6 4 6 8-0.02 2-0.5 3-2 5-0.4 0.7-1 2-1 3-0.8 2-1 3-2 4-2 1-4 4-5 6-0.7 1-2 3-3 4-2 2-6 5-8 7-3 2-3 7 0.7 9 3 2 5 1 11-2 3-2 4-2 4-4 0-2 0.8-3 2-4 1-0.9 4-2 7-3 1-0.5 2-0.6 5-0.6h3l2 1c4 2 5 4 5 6-0.3 2-4 9-5 10-2 1-5 2-10 2-4-8e-3 -5-0.6-7-4-1-2-1-2-9 0.2-5 2-7 2-8 2-2 0-3-0.7-4-3-1-2-2-3-3-3-0.2 0-0.9 0.4-2 0.9-2 1-3 2-7 3-2 0.6-5 2-8 3-5 2-10 4-11 4-0.2-0.08-2-0.3-3-0.4-3-0.4-4-0.6-4-4 0.05-2 0.2-3 0.9-5 0.8-2 1-6 0.9-7-0.1-0.5-0.5-0.8-1-1-1-0.6-2-0.5-3 0.7-0.7 0.7-1 1-2 1-3 0.6-5 2-8 8-1 2-2 5-2 5-0.2 0.2-0.8 0.3-2 0.3-1 0-1-0.1-2-0.7-0.7-0.8-1-2-1-4-6e-3 -0.9-0.06-1-0.8-1-0.4 0-2 0.5-4 1-10 4-12 4-15 3-2-0.5-3-2-4-4-1-2-1-2-4-0.8-1 0.7-3 2-4 2-0.9 0.7-2 1-2 1-0.09 0-1 0.6-3 1-2 0.7-3 1-3 1-0.2 0-1-0.5-3-1-4-2-5-3-6-6-0.3-1-0.4-2-1-2-0.4 0.03-2 0.5-3 1-1 0.6-3 1-4 1-2 0.4-6 2-11 5-6 3-8 3-10 2zm166-7c2-0.9 4-3 6-5 1-2 1-3-0.3-4-1-2-2-1-7 0.8-5 2-7 4-7 6 0 1 1 3 3 3 3 0.7 2 0.8 5-0.3zm-124-1c0.8-0.4 2-1 3-2 2-0.9 3-1 5-0.7 0.9 0.2 1 0.2 2-0.8 1-2 0.6-4-1-6l-1-1-2 0.8c-1 0.6-2 0.8-4 0.9-1 0.1-2 0.4-3 0.8-2 0.8-4 3-5 4-0.9 2-0.03 3 2 4 2 0.6 3 0.5 4-0.3zm55-18c1-1 3-3 4-5 0.8-1 2-2 2-2 0.1-0.08 0.2-0.5 0.2-0.9 4e-3 -1 1-3 3-6 3-3 6-8 6-9 0.2-0.6 0.2-0.8-0.2-1-0.4-0.5-0.8-0.6-2-0.6-1-0.01-2 0.1-3 1-3 2-5 4-6 6-0.6 1-2 3-3 4-2 2-3 5-5 9-1 3-1 3-1 4 0.08 0.9 0.2 2 0.3 2 0.2 0.4 0.2 0.4 1-0.1 0.5-0.3 2-2 3-3zm45 0.04c0.7-0.4 2-2 3-4 0.4-0.7 1-2 2-2 2-1 6-6 7-8 0.8-2 1-4 0.4-5-0.9-0.9-4-0.5-5 0.7-1 1-9 16-10 17-0.4 2-0.4 2 0.5 1 0.4-0.1 1-0.3 1-0.5zm38 24c-2-0.5-2-1-2-3 0.2-2 1-3 3-5 1-0.8 2-1 3-1 1-0.09 2-7e-3 3 0.7 0.7 0.4 2 1 2 2l0.8 1-0.9 1c-0.9 1-2 2-4 3-1 0.5-3 0.5-5-5e-4zm-440-1c-0.8-0.3-0.8-0.4-0.6-0.9 0.7-1 7-4 9-5 3-0.5 4-1 11-8 5-5 6-6 7-8 0.7-1 2-3 2-3l0.8-0.7 0.6 0.7c0.6 0.7 0.6 0.9 0.4 2-0.4 3 0.7 4 4 4 2-0.2 3-0.7 6-3 2-2 2-2 3-2 0.2 0.2 0.4 0.7 0.4 1 0 0.9-2 6-4 8-0.6 0.9-1 2-2 3-0.6 2-0.6 4-0.06 5 1 2 3 4 5 4 1 7e-3 5-1 9-3 5-2 7-3 10-6 0.8-0.7 3-3 6-4 2-2 5-4 6-5 3-3 4-3 4-2 1 1 0.6 2-2 4-1 1-3 3-3 4-1 2-3 5-3 6-3e-4 1 1 3 2 3 0.9 0.6 1 0.6 4 0.3 7-0.7 8-1 13-7 2-2 4-5 5-5 1-1 2-2 4-2 0.9-1e-3 1-0.2 2-0.8 1-0.8 4-2 5-2 0.3 0 1-0.2 2-0.5l2-0.5 3 0.8c1 0.4 3 0.8 3 0.8 0.04 0 1-2 3-5 6-11 13-23 17-28 1-2 2-2 3-3 1-0.5 2-0.3 2 0.9 0 0.7-0.3 1-1 2-6 7-6 8-7 11-0.5 1-3 6-6 11-0.8 1-2 3-2 4-0.4 1-2 4-3 6-2 4-3 7-3 9 0 1 0.1 1 1 2 1 1 3 2 4 1 0.5-0.2 4-2 7-4 5-3 6-4 7-5 1-2 2-3 6-4 5-3 8-4 12-3 1 0.2 3 0.4 3 0.4 2 0.2 3 0.5 4 2 2 3 2 5-0.4 8-2 2-2 3-2 5 0.1 2 0.6 3 2 3 0.7-5e-3 2-0.2 3-0.5 0.8-0.3 3-1 6-2l4-1-0.2 1c-0.4 3-2 4-5 4-1 0.2-3 0.7-4 1-4 1-5 1-8-1-3-2-4-3-7-1-2 0.9-7 2-8 2-2-0.2-5-3-5-5-0.3-1-0.8-2-1-2-0.1 0-1 0.8-2 2-3 3-6 5-9 5-4 0.9-6 0.3-9-2-0.8-0.8-2-1-2-1-0.3 0-2 0.8-4 2-2 1-4 2-6 3-4 2-5 2-9-1-2-2-3-2-8 0.1-4 2-7 3-10 3-3 0.02-3-0.02-4-0.6-1-0.9-2-3-3-4-0.2-0.8-0.4-2-0.6-3-0.3-1-0.3-1-1-0.9-1 0.3-7 3-10 5-1 0.7-5 2-11 5-2 0.8-5 0.6-7-0.4-2-0.9-3-2-4-4-0.7-1-0.7-1-0.8-5-0.08-2-0.3-4-0.5-4-0.4-0.7-4-3-5-3-0.8 0-1 0.7-3 3-1 2-2 2-5 5-8 7-9 7-15 8-2 0.4-3 0.8-4 0.8-0.2 0.06-0.8-0.06-1-0.3zm103-8c2-0.8 8-7 8-8 0.2-0.9-0.6-2-2-3-1-0.5-2-0.4-5 1-2 0.7-3 1-4 2-2 2-3 3-3 5 0 1 0.08 2 1 2 0.8 0.8 1 0.9 2 0.8 0.5-0.08 2-0.5 2-0.9zm42-0.2c2-0.5 3-1 7-5 4-4 5-6 4-7-0.5-0.4-0.9-0.4-3-0.1-2 0.3-4 1-7 3-0.8 0.6-2 1-3 2-5 3-6 6-1 8 2 0.4 2 0.4 4-7e-3zm-190 7-0.9-0.1 0.5-0.7c0.3-0.4 1-0.9 2-1 0.7-0.2 2-0.9 3-2 1-1 3-2 4-3 3-1 11-10 16-16 4-5 8-11 9-13 0.7-1 1-3 0.5-3-0.1 0-2 0.4-4 0.8-4 0.9-4 1-4 0.3 0.01-0.7 0.5-1 3-3 1-0.9 3-2 4-2 2-0.7 4-2 5-4 0.3-0.5 2-4 3-8 3-8 5-12 6-13 0.3-0.2 1-0.8 2-1 2-0.8 3-2 3-3 0-0.7-0.7-2-1-2-0.2 0-0.8 0.4-1 0.8-0.8 0.6-1 0.8-1 0.5-0.3-0.1-1-0.4-2-0.5-2-0.4-3 0.07-6 2-1 0.9-3 2-3 2-0.8 0.4-4 0.6-4 0.2 9e-3 -1 4-5 8-7 3-2 18-6 21-7 3-0.4 6-5e-3 11 1 3 0.8 5 1 7 1 4 0.4 16 2 17 2 0.8 0.3 0.8 0.4 0.4 2-0.3 1-0.2 1 0.4 2 0.4 0.6 0.7 1 0.7 1 0 0.4-4 2-5 2-3 0.6-9-0.5-15-3-3-1-10-4-12-4-1-0.2-4 0.3-6 1-2 0.9-2 1-3 4-0.8 2-2 5-5 10-6 10-6 10-5 11 0.1 2 0.5 2 9 3 4 0.3 8 0.6 10 0.6 3 0.01 4 0.2 4 0.8 0 0.5-0.7 1-2 2-0.7 0.3-0.9 0.7-1 2-0.3 1-0.5 1-1 2-2 0.7-4 0.4-11-2-8-2-8-2-10-0.8-0.5 0.5-2 3-4 8-3 9-4 9-6 13-3 4-5 7-7 10-3 3-7 7-8 7-0.4 0.09-2 0.6-4 1-4 1-10 2-14 1zm125-32c-1-0.6-2-2-2-4 0.1-2 0.6-3 2-4 1-0.5 3-0.3 5 0.6 2 0.9 2 1 2 4l-0.2 2-2 0.8c-3 0.9-4 1-5 0.5z"/>
  </g>
</svg>
